<svg xmlns="http://www.w3.org/2000/svg" width="946.0752mm" height="300mm" viewBox="0 0 946.0752 300"><defs><clipPath id="a" clipPathUnits="userSpaceOnUse"><path d="M159.18 606.594c0-14.625 11.955-26.487 26.743-26.487 14.764 0 26.763 11.862 26.763 26.487 0 14.633-11.999 26.497-26.763 26.497-14.788 0-26.743-11.864-26.743-26.497m12.455 0c0 7.813 6.393 14.156 14.288 14.156 7.902 0 14.308-6.343 14.308-14.156 0-7.821-6.406-14.147-14.308-14.147-7.895 0-14.288 6.326-14.288 14.147"/></clipPath><clipPath id="c" clipPathUnits="userSpaceOnUse"><path d="M90.551 606.605c0-12.52 8.781-22.989 20.567-25.747v-28.936h12.38v28.936c11.789 2.758 20.567 13.227 20.567 25.747 0 14.622-11.985 26.486-26.75 26.486-14.78 0-26.764-11.864-26.764-26.486m12.459 0c0 7.815 6.403 14.153 14.305 14.153 7.909 0 14.295-6.338 14.295-14.153 0-7.818-6.386-14.158-14.295-14.158-7.902 0-14.305 6.34-14.305 14.158"/></clipPath><clipPath id="e" clipPathUnits="userSpaceOnUse"><path d="M304.459 625.325a26.277 26.277 0 0 1 0-37.455c8.885-8.806 22.469-10.085 32.77-3.919l7.035-6.951 8.729 8.648-6.953 6.885c6.485 10.229 5.252 23.894-3.745 32.792-5.227 5.175-12.075 7.763-18.921 7.763s-13.691-2.588-18.915-7.763m8.803-28.745c-5.585 5.534-5.585 14.506-.004 20.031 5.581 5.536 14.626 5.536 20.215 0a14.049 14.049 0 0 0 0-20.031c-2.781-2.761-6.44-4.142-10.1-4.142-3.66 0-7.323 1.381-10.111 4.142"/></clipPath><clipPath id="g" clipPathUnits="userSpaceOnUse"><path d="M248.438 657.94v-25.586c-11.802-2.767-20.579-13.234-20.579-25.749v-26.472h12.444l.008 26.417v.055c0 7.815 6.399 14.153 14.309 14.153 7.887 0 14.298-6.338 14.298-14.153v-.055h.015l.003-26.417h12.433v26.472c0 12.515-8.784 22.976-20.586 25.749v25.586z"/></clipPath><clipPath id="i" clipPathUnits="userSpaceOnUse"><path d="M365.299 606.704h-.02v-26.571h12.471v26.571h.011c.138 7.699 6.474 13.901 14.291 13.901 7.819 0 14.151-6.202 14.293-13.901v-26.571h12.456v26.571h-.016c-.134 14.516-12.054 26.237-26.733 26.237-14.691 0-26.603-11.721-26.753-26.237"/></clipPath><clipPath id="k" clipPathUnits="userSpaceOnUse"><path d="M474.483 628.996c-10.259 6.491-23.898 5.273-32.803-3.747-10.342-10.429-10.342-27.372.012-37.825a26.692 26.692 0 0 1 6.445-4.79c-8.456-4.452-14.208-13.255-14.208-23.401 0-14.619 11.969-26.476 26.745-26.476 14.776 0 26.763 11.857 26.763 26.476 0 10.261-5.898 19.147-14.506 23.539a26.475 26.475 0 0 1 6.215 4.662c8.804 8.883 10.087 22.479 3.9 32.764l6.972 7.034-8.651 8.736zm-24.078-32.773c-5.536 5.588-5.536 14.634 0 20.238 5.537 5.584 14.493 5.584 20.014 0 5.536-5.591 5.536-14.635 0-20.224a14.058 14.058 0 0 0-20.014-.014m-4.025-36.99c0 7.816 6.384 14.161 14.294 14.161 7.902 0 14.305-6.345 14.305-14.161 0-7.823-6.403-14.155-14.305-14.155-7.91 0-14.294 6.332-14.294 14.155"/></clipPath><clipPath id="m" clipPathUnits="userSpaceOnUse"><path d="M0 841.89h595.28V0H0Z"/></clipPath><radialGradient id="b" cx="0" cy="0" r="1" fx="0" fy="0" gradientTransform="matrix(29.31902 0 0 -29.31902 177.239 627.194)" gradientUnits="userSpaceOnUse" spreadMethod="pad"><stop offset="0" style="stop-opacity:1;stop-color:#d7edf2"/><stop offset="0.5" style="stop-opacity:1;stop-color:#00b4e3"/><stop offset="1" style="stop-opacity:1;stop-color:#0070bd"/></radialGradient><radialGradient id="d" cx="0" cy="0" r="1" fx="0" fy="0" gradientTransform="matrix(39.98305 0 0 -39.98305 108.612 624.057)" gradientUnits="userSpaceOnUse" spreadMethod="pad"><stop offset="0" style="stop-opacity:1;stop-color:#d7edf2"/><stop offset="0.5" style="stop-opacity:1;stop-color:#00b4e3"/><stop offset="1" style="stop-opacity:1;stop-color:#0070bd"/></radialGradient><radialGradient id="f" cx="0" cy="0" r="1" fx="0" fy="0" gradientTransform="matrix(30.9844 0 0 -30.9844 315.643 626.845)" gradientUnits="userSpaceOnUse" spreadMethod="pad"><stop offset="0" style="stop-opacity:1;stop-color:#d7edf2"/><stop offset="0.5" style="stop-opacity:1;stop-color:#00b4e3"/><stop offset="1" style="stop-opacity:1;stop-color:#0070bd"/></radialGradient><radialGradient id="h" cx="0" cy="0" r="1" fx="0" fy="0" gradientTransform="matrix(38.65418 0 0 -38.65418 245.919 649.28)" gradientUnits="userSpaceOnUse" spreadMethod="pad"><stop offset="0" style="stop-opacity:1;stop-color:#d7edf2"/><stop offset="0.5" style="stop-opacity:1;stop-color:#00b4e3"/><stop offset="1" style="stop-opacity:1;stop-color:#0070bd"/></radialGradient><radialGradient id="j" cx="0" cy="0" r="1" fx="0" fy="0" gradientTransform="matrix(29.26004 0 0 -29.26002 383.343 627.064)" gradientUnits="userSpaceOnUse" spreadMethod="pad"><stop offset="0" style="stop-opacity:1;stop-color:#d7edf2"/><stop offset="0.5" style="stop-opacity:1;stop-color:#00b4e3"/><stop offset="1" style="stop-opacity:1;stop-color:#0070bd"/></radialGradient><radialGradient id="l" cx="0" cy="0" r="1" fx="0" fy="0" gradientTransform="matrix(49.23054 0 0 -49.23053 452.855 624.48)" gradientUnits="userSpaceOnUse" spreadMethod="pad"><stop offset="0" style="stop-opacity:1;stop-color:#d7edf2"/><stop offset="0.5" style="stop-opacity:1;stop-color:#00b4e3"/><stop offset="1" style="stop-opacity:1;stop-color:#0070bd"/></radialGradient></defs><g clip-path="url(#a)" transform="matrix(2.36834 0 0 -2.36834 -214.456 1558.228)"><path d="M159.18 606.594c0-14.625 11.955-26.487 26.743-26.487 14.764 0 26.763 11.862 26.763 26.487 0 14.633-11.999 26.497-26.763 26.497-14.788 0-26.743-11.864-26.743-26.497m12.455 0c0 7.813 6.393 14.156 14.288 14.156 7.902 0 14.308-6.343 14.308-14.156 0-7.821-6.406-14.147-14.308-14.147-7.895 0-14.288 6.326-14.288 14.147" style="fill:url(#b);stroke:none"/></g><g clip-path="url(#c)" transform="matrix(2.36834 0 0 -2.36834 -214.456 1558.228)"><path d="M90.551 606.605c0-12.52 8.781-22.989 20.567-25.747v-28.936h12.38v28.936c11.789 2.758 20.567 13.227 20.567 25.747 0 14.622-11.985 26.486-26.75 26.486-14.78 0-26.764-11.864-26.764-26.486m12.459 0c0 7.815 6.403 14.153 14.305 14.153 7.909 0 14.295-6.338 14.295-14.153 0-7.818-6.386-14.158-14.295-14.158-7.902 0-14.305 6.34-14.305 14.158" style="fill:url(#d);stroke:none"/></g><g clip-path="url(#e)" transform="matrix(2.36834 0 0 -2.36834 -214.456 1558.228)"><path d="M304.459 625.325a26.277 26.277 0 0 1 0-37.455c8.885-8.806 22.469-10.085 32.77-3.919l7.035-6.951 8.729 8.648-6.953 6.885c6.485 10.229 5.252 23.894-3.745 32.792-5.227 5.175-12.075 7.763-18.921 7.763s-13.691-2.588-18.915-7.763m8.803-28.745c-5.585 5.534-5.585 14.506-.004 20.031 5.581 5.536 14.626 5.536 20.215 0a14.049 14.049 0 0 0 0-20.031c-2.781-2.761-6.44-4.142-10.1-4.142-3.66 0-7.323 1.381-10.111 4.142" style="fill:url(#f);stroke:none"/></g><g clip-path="url(#g)" transform="matrix(2.36834 0 0 -2.36834 -214.456 1558.228)"><path d="M248.438 657.94v-25.586c-11.802-2.767-20.579-13.234-20.579-25.749v-26.472h12.444l.008 26.417v.055c0 7.815 6.399 14.153 14.309 14.153 7.887 0 14.298-6.338 14.298-14.153v-.055h.015l.003-26.417h12.433v26.472c0 12.515-8.784 22.976-20.586 25.749v25.586z" style="fill:url(#h);stroke:none"/></g><g clip-path="url(#i)" transform="matrix(2.36834 0 0 -2.36834 -214.456 1558.228)"><path d="M365.299 606.704h-.02v-26.571h12.471v26.571h.011c.138 7.699 6.474 13.901 14.291 13.901 7.819 0 14.151-6.202 14.293-13.901v-26.571h12.456v26.571h-.016c-.134 14.516-12.054 26.237-26.733 26.237-14.691 0-26.603-11.721-26.753-26.237" style="fill:url(#j);stroke:none"/></g><g clip-path="url(#k)" transform="matrix(2.36834 0 0 -2.36834 -214.456 1558.228)"><path d="M474.483 628.996c-10.259 6.491-23.898 5.273-32.803-3.747-10.342-10.429-10.342-27.372.012-37.825a26.692 26.692 0 0 1 6.445-4.79c-8.456-4.452-14.208-13.255-14.208-23.401 0-14.619 11.969-26.476 26.745-26.476 14.776 0 26.763 11.857 26.763 26.476 0 10.261-5.898 19.147-14.506 23.539a26.475 26.475 0 0 1 6.215 4.662c8.804 8.883 10.087 22.479 3.9 32.764l6.972 7.034-8.651 8.736zm-24.078-32.773c-5.536 5.588-5.536 14.634 0 20.238 5.537 5.584 14.493 5.584 20.014 0 5.536-5.591 5.536-14.635 0-20.224a14.058 14.058 0 0 0-20.014-.014m-4.025-36.99c0 7.816 6.384 14.161 14.294 14.161 7.902 0 14.305-6.345 14.305-14.161 0-7.823-6.403-14.155-14.305-14.155-7.91 0-14.294 6.332-14.294 14.155" style="fill:url(#l);stroke:none"/></g><g clip-path="url(#m)" transform="matrix(2.36834 0 0 -2.36834 -214.456 1558.228)"><path d="M0 0c-2.979 0-5.405 2.325-5.405 5.211 0 2.878 2.426 5.211 5.405 5.211s5.397-2.333 5.397-5.211C5.397 2.325 2.979 0 0 0m0 14.877c-5.861 0-10.616-4.328-10.616-9.666 0-5.353 4.755-9.682 10.616-9.682 5.857 0 10.615 4.329 10.615 9.682 0 5.338-4.758 9.666-10.615 9.666" style="fill:#595757;fill-opacity:1;fill-rule:nonzero;stroke:none" transform="translate(368.031 535.74)"/><path d="M0 0v6.406h-5.457v-17.333H0v5.843h4.579V0Z" style="fill:#595757;fill-opacity:1;fill-rule:nonzero;stroke:none" transform="translate(379.387 563.305)"/><path d="M0 0c-2.306 0-4.187 1.831-4.187 4.063 0 2.239 1.881 4.052 4.187 4.052 2.307 0 4.19-1.813 4.19-4.052C4.19 1.831 2.307 0 0 0m10.53 13.456H2.714v3.323h-5.453v-3.323h-7.794V8.893h2.714c-1.029-1.387-1.626-3.055-1.626-4.83 0-4.751 4.231-8.617 9.445-8.617 5.207 0 9.436 3.866 9.436 8.617a8.051 8.051 0 0 1-1.62 4.83h2.714z" style="fill:#595757;fill-opacity:1;fill-rule:nonzero;stroke:none" transform="translate(357.231 554.864)"/><path d="M412.342 533.983h5.457v36.603h-5.457z" style="fill:#595757;fill-opacity:1;fill-rule:nonzero;stroke:none"/><path d="M0 0v3.716h-5.57V0c0-14.182-9.181-18.354-9.181-18.354l3.529-4.201s5.951 3.633 8.433 9.315c2.489-5.682 8.436-9.315 8.436-9.315l3.53 4.201S0-14.182 0 0" style="fill:#595757;fill-opacity:1;fill-rule:nonzero;stroke:none" transform="translate(399.58 565.308)"/><path d="M0 0v5.847h-5.477V0H-20.11v-5.195h35.256V0Z" style="fill:#595757;fill-opacity:1;fill-rule:nonzero;stroke:none" transform="translate(326.435 541.332)"/><path d="M319.299 563.847h9.102v-9.379h-9.102zm7.109-14.441h11.958v5.062h-4.605v9.379h4.605v5.087h-29.067v-5.087h4.613v-9.379h-4.613v-5.062h11.764z" style="fill:#595757;fill-opacity:1;fill-rule:nonzero;stroke:none"/></g></svg>